<svg xmlns="http://www.w3.org/2000/svg" viewBox="0 0 204.42 292.6"><defs><style>.cls-1,.cls-2{fill:none;stroke:#000;stroke-miterlimit:10;stroke-width:2px;}.cls-1{fill-rule:evenodd;}</style></defs><title>Asset 1</title><g id="Layer_2" data-name="Layer 2"><g id="Layer_2-2" data-name="Layer 2"><path class="cls-1" d="M51,244.29c-27.61,0-50-29.52-50-65.93s22.39-65.92,50-65.92"/><path class="cls-1" d="M153.42,112.44c27.61,0,50,29.51,50,65.92s-22.39,65.93-50,65.93"/></g><g id="Layer_5" data-name="Layer 5"><line class="cls-2" x1="102.21" y1="1.48" x2="102.21" y2="12.08"/><line class="cls-2" x1="90.15" y1="2.39" x2="93.66" y2="11.8"/><polyline class="cls-1" points="56.89 29.63 67.71 41.23 83.1 38.95 87.52 25.21 75.3 9.28"/><line class="cls-2" x1="93.59" y1="102.8" x2="93.59" y2="11.42"/><polyline class="cls-1" points="56.89 75.56 67.71 63.96 83.1 66.24 87.52 79.98 75.29 95.91"/><line class="cls-2" x1="113.82" y1="2" x2="110.31" y2="11.41"/><line class="cls-2" x1="110.38" y1="102.41" x2="110.38" y2="11.03"/><line class="cls-2" x1="93.59" y1="52.21" x2="110.82" y2="52.21"/><polyline class="cls-1" points="148.1 29.63 137.28 41.23 121.89 38.95 117.47 25.21 129.7 9.28"/><polyline class="cls-1" points="148.1 75.56 137.28 63.96 121.89 66.24 117.47 79.98 129.7 95.91"/></g><g id="Layer_4" data-name="Layer 4"><circle class="cls-2" cx="102.21" cy="52.21" r="51.21"/></g><g id="Layer_3" data-name="Layer 3"><polygon class="cls-1" points="50.71 105.6 153.71 105.6 153.71 291.41 50.71 291.6 50.71 105.6"/></g></g></svg>