<svg xmlns="http://www.w3.org/2000/svg" viewBox="0 0 206.42 294.6"><defs><style>.cls-1,.cls-2{fill:none;stroke:#40b9ea;stroke-miterlimit:10;stroke-width:4px;}.cls-1{fill-rule:evenodd;}</style></defs><title>Asset 3</title><g id="Layer_2" data-name="Layer 2"><g id="Layer_2-2" data-name="Layer 2"><path class="cls-1" d="M52,245.29c-27.61,0-50-29.52-50-65.93s22.39-65.92,50-65.92"/><path class="cls-1" d="M154.42,113.44c27.61,0,50,29.51,50,65.92s-22.39,65.93-50,65.93"/></g><g id="Layer_5" data-name="Layer 5"><line class="cls-2" x1="103.21" y1="2.48" x2="103.21" y2="13.08"/><line class="cls-2" x1="91.15" y1="3.39" x2="94.66" y2="12.8"/><polyline class="cls-1" points="57.89 30.63 68.71 42.23 84.1 39.95 88.52 26.21 76.3 10.28"/><line class="cls-2" x1="94.59" y1="103.8" x2="94.59" y2="12.42"/><polyline class="cls-1" points="57.89 76.56 68.71 64.96 84.1 67.24 88.52 80.98 76.29 96.91"/><line class="cls-2" x1="114.82" y1="3" x2="111.31" y2="12.41"/><line class="cls-2" x1="111.38" y1="103.41" x2="111.38" y2="12.03"/><line class="cls-2" x1="94.59" y1="53.21" x2="111.82" y2="53.21"/><polyline class="cls-1" points="149.1 30.63 138.28 42.23 122.89 39.95 118.47 26.21 130.7 10.28"/><polyline class="cls-1" points="149.1 76.56 138.28 64.96 122.89 67.24 118.47 80.98 130.7 96.91"/></g><g id="Layer_4" data-name="Layer 4"><circle class="cls-2" cx="103.21" cy="53.21" r="51.21"/></g><g id="Layer_3" data-name="Layer 3"><polygon class="cls-1" points="51.71 106.6 154.71 106.6 154.71 292.41 51.71 292.6 51.71 106.6"/></g></g></svg>